<svg width="30" height="30" viewBox="0 0 30 30" fill="none" xmlns="http://www.w3.org/2000/svg">
<path d="M18.7508 28.4373H11.2508C9.60079 28.4373 8.22579 28.2748 7.06329 27.9248C6.63829 27.7998 6.36329 27.3873 6.38829 26.9498C6.70079 23.2123 10.4883 20.2747 15.0008 20.2747C19.5133 20.2747 23.2883 23.1998 23.6133 26.9498C23.6508 27.3998 23.3758 27.7998 22.9383 27.9248C21.7758 28.2748 20.4008 28.4373 18.7508 28.4373ZM8.40079 26.3248C9.22579 26.4873 10.1633 26.5623 11.2508 26.5623H18.7508C19.8383 26.5623 20.7758 26.4873 21.6008 26.3248C20.9383 23.9248 18.2008 22.1497 15.0008 22.1497C11.8008 22.1497 9.06329 23.9248 8.40079 26.3248Z" fill="#6CB5EA"/>
<path d="M18.75 2.5H11.25C5 2.5 2.5 5 2.5 11.25V18.75C2.5 23.475 3.925 26.0625 7.325 27.025C7.6 23.775 10.9375 21.2125 15 21.2125C19.0625 21.2125 22.4 23.775 22.675 27.025C26.075 26.0625 27.5 23.475 27.5 18.75V11.25C27.5 5 25 2.5 18.75 2.5ZM15 17.7125C12.525 17.7125 10.525 15.7 10.525 13.225C10.525 10.75 12.525 8.75 15 8.75C17.475 8.75 19.475 10.75 19.475 13.225C19.475 15.7 17.475 17.7125 15 17.7125Z" stroke="#6CB5EA" stroke-width="1.5" stroke-linecap="round" stroke-linejoin="round"/>
<path d="M14.9999 18.65C12.0124 18.65 9.5874 16.2125 9.5874 13.225C9.5874 10.2375 12.0124 7.8125 14.9999 7.8125C17.9874 7.8125 20.4124 10.2375 20.4124 13.225C20.4124 16.2125 17.9874 18.65 14.9999 18.65ZM14.9999 9.6875C13.0499 9.6875 11.4624 11.275 11.4624 13.225C11.4624 15.1875 13.0499 16.775 14.9999 16.775C16.9499 16.775 18.5374 15.1875 18.5374 13.225C18.5374 11.275 16.9499 9.6875 14.9999 9.6875Z" fill="#6CB5EA"/>
</svg>
