<svg width="32" height="40" viewBox="0 0 32 40" fill="none" xmlns="http://www.w3.org/2000/svg">
<path id="Vector" d="M28.7607 5.04508H21.7179C21.2694 2.19652 18.8693 0 15.9237 0C12.9781 0 10.5318 2.19652 10.1294 5.04508H3.18843C1.83812 5.04508 0.742188 6.14566 0.742188 7.49132V9.98843C0.742188 11.237 1.63931 12.2358 2.84162 12.3838V36.7538C2.84162 38.5526 4.28901 40 6.08786 40H25.9121C27.711 40 29.1584 38.5526 29.1584 36.7538V12.4301C30.356 12.2312 31.2578 11.2324 31.2578 10.0347V7.53759C31.2069 6.14566 30.1064 5.04508 28.7607 5.04508ZM15.9237 1.84971C17.8705 1.84971 19.4705 3.20002 19.8173 5.04508H11.9791C12.3769 3.24624 13.9769 1.84971 15.9237 1.84971ZM27.2624 36.8093C27.2624 37.5584 26.6613 38.2058 25.8659 38.2058H6.03699C5.28787 38.2058 4.64047 37.6047 4.64047 36.8093V12.4855H27.2162V36.8093H27.2624ZM29.3572 9.98843C29.3572 10.3399 29.1075 10.5896 28.756 10.5896H3.18378C2.83233 10.5896 2.5826 10.3399 2.5826 9.98843V7.49132C2.5826 7.13987 2.83233 6.89014 3.18378 6.89014H28.7052C29.0566 6.89014 29.3063 7.13987 29.3063 7.49132V9.98843H29.3572ZM8.78378 33.4104V17.6324C8.78378 17.133 9.18145 16.7353 9.6809 16.7353C10.1804 16.7353 10.578 17.1329 10.578 17.6324V33.4104C10.578 33.9098 10.1804 34.3076 9.6809 34.3076C9.1815 34.363 8.78378 33.9098 8.78378 33.4104ZM15.1237 33.4104V17.6324C15.1237 17.133 15.5214 16.7353 16.0208 16.7353C16.5202 16.7353 16.918 17.1329 16.918 17.6324V33.4104C16.918 33.9098 16.5203 34.3076 16.0208 34.3076C15.526 34.363 15.1237 33.9098 15.1237 33.4104ZM21.4682 33.4104V17.6324C21.4682 17.133 21.8659 16.7353 22.3653 16.7353C22.8648 16.7353 23.2624 17.1329 23.2624 17.6324V33.4104C23.2624 33.9098 22.8648 34.3076 22.3653 34.3076C21.9168 34.363 21.4682 33.9098 21.4682 33.4104Z" fill="#236898"/>
</svg>
