<svg width="62" height="56" viewBox="0 0 62 56" fill="none" xmlns="http://www.w3.org/2000/svg">
<path d="M33.6021 40.0938C32.8445 40.8515 32.8445 42.0779 33.6021 42.8335C34.3598 43.5911 35.5861 43.5911 36.3417 42.8335L49.7085 29.4648C50.1116 29.0617 50.284 28.5251 50.2568 27.998C50.284 27.4691 50.1115 26.9343 49.7085 26.5313L36.3417 13.1646C35.5861 12.407 34.3577 12.407 33.6021 13.1646C32.8445 13.9222 32.8445 15.1486 33.6021 15.9041L43.7603 26.0624H1.9375C0.868 26.0625 0 26.9305 0 28C0 29.0695 0.868 29.9375 1.9375 29.9375H43.7603L33.6021 40.0938ZM54.25 0.875H15.5C11.2201 0.875 7.75 4.34508 7.75 8.625V16.375H11.625V8.625C11.625 6.486 13.3591 4.75 15.5 4.75H54.25C56.3909 4.75 58.125 6.486 58.125 8.625V47.375C58.125 49.514 56.3909 51.25 54.25 51.25H15.5C13.3591 51.25 11.625 49.5159 11.625 47.375V39.625H7.75V47.375C7.75 51.6549 11.2201 55.125 15.5 55.125H54.25C58.5299 55.125 62 51.6549 62 47.375V8.625C62 4.34508 58.5299 0.875 54.25 0.875Z" fill="#6CB5EA"/>
</svg>
