<svg width="9" height="14" viewBox="0 0 9 14" fill="none" xmlns="http://www.w3.org/2000/svg">
<path d="M7.71421 8.77996L4.49936 12.1223L1.28451 8.77996C1.1434 8.6336 0.952011 8.55137 0.752449 8.55137C0.552887 8.55137 0.361499 8.6336 0.220387 8.77996C0.0792757 8.92633 0 9.12484 0 9.33183C0 9.53882 0.0792757 9.73733 0.220387 9.8837L3.9673 13.7701C4.03696 13.8429 4.11985 13.9008 4.21117 13.9402C4.30248 13.9797 4.40043 14 4.49936 14C4.59829 14 4.69624 13.9797 4.78756 13.9402C4.87888 13.9008 4.96176 13.8429 5.03142 13.7701L8.77833 9.8837C8.8482 9.81122 8.90363 9.72519 8.94144 9.6305C8.97926 9.53581 8.99872 9.43432 8.99872 9.33183C8.99872 9.22934 8.97926 9.12785 8.94144 9.03316C8.90363 8.93847 8.8482 8.85244 8.77833 8.77996C8.70846 8.70749 8.62551 8.65 8.53422 8.61078C8.44293 8.57156 8.34509 8.55137 8.24627 8.55137C8.14746 8.55137 8.04961 8.57156 7.95832 8.61078C7.86703 8.65 7.78408 8.70749 7.71421 8.77996ZM1.28451 5.22004L4.49936 1.87774L7.71421 5.22004C7.78388 5.29289 7.86676 5.35071 7.95808 5.39017C8.0494 5.42964 8.14735 5.44995 8.24627 5.44995C8.3452 5.44995 8.44315 5.42964 8.53447 5.39017C8.62579 5.35071 8.70867 5.29289 8.77833 5.22004C8.84857 5.14778 8.90432 5.06181 8.94237 4.96709C8.98041 4.87237 9 4.77078 9 4.66817C9 4.56556 8.98041 4.46396 8.94237 4.36925C8.90432 4.27453 8.84857 4.18856 8.77833 4.1163L5.03142 0.229917C4.96176 0.157064 4.87888 0.0992393 4.78756 0.059778C4.69624 0.0203167 4.59829 0 4.49936 0C4.40043 0 4.30248 0.0203167 4.21117 0.059778C4.11985 0.0992393 4.03696 0.157064 3.9673 0.229917L0.220387 4.1163C0.150516 4.18877 0.0950911 4.27481 0.057277 4.3695C0.0194629 4.46419 0 4.56568 0 4.66817C0 4.87516 0.0792757 5.07367 0.220387 5.22004C0.361499 5.3664 0.552887 5.44863 0.752449 5.44863C0.952011 5.44863 1.1434 5.3664 1.28451 5.22004Z" fill="#4D4D4F"/>
</svg>
