<svg width="83" height="83" viewBox="0 0 83 83" fill="none" xmlns="http://www.w3.org/2000/svg">
<path d="M79.8906 42.4953C79.9054 42.382 79.9054 42.2673 79.8906 42.1541C79.8934 35.7686 78.3033 29.4833 75.2644 23.8673C72.2255 18.2513 67.8338 13.482 62.4869 9.99125C62.2959 9.76095 62.0372 9.59676 61.7475 9.52203C57.3102 6.76707 52.3546 4.95228 47.1875 4.19V1.6875C47.1875 1.3104 47.0377 0.948736 46.771 0.682082C46.5044 0.415429 46.1427 0.265625 45.7656 0.265625H37.2344C36.8573 0.265625 36.4956 0.415429 36.229 0.682082C35.9623 0.948736 35.8125 1.3104 35.8125 1.6875V4.19C30.6454 4.95228 25.6898 6.76707 21.2525 9.52203C20.9628 9.59676 20.7041 9.76095 20.5131 9.99125C15.1662 13.482 10.7745 18.2513 7.73562 23.8673C4.69672 29.4833 3.10665 35.7686 3.10938 42.1541C3.09464 42.2673 3.09464 42.382 3.10938 42.4953C2.27053 42.8508 1.55419 43.4443 1.04881 44.2023C0.54344 44.9604 0.271169 45.8499 0.265625 46.7609V50.3156C0.265622 50.9255 0.385988 51.5295 0.619823 52.0928C0.853657 52.6561 1.19636 53.1677 1.6283 53.5983C2.06024 54.0289 2.57291 54.3701 3.13693 54.6022C3.70096 54.8343 4.30524 54.9528 4.91516 54.9509H78.0848C78.6948 54.9528 79.299 54.8343 79.8631 54.6022C80.4271 54.3701 80.9398 54.0289 81.3717 53.5983C81.8036 53.1677 82.1463 52.6561 82.3802 52.0928C82.614 51.5295 82.7344 50.9255 82.7344 50.3156V46.8036C82.7372 45.8853 82.4688 44.9865 81.9629 44.2201C81.457 43.4537 80.7361 42.8537 79.8906 42.4953ZM38.6562 3.10937H44.3438V24.4375H38.6562V3.10937ZM20.1719 13.7308V22.262C20.1719 22.6391 20.3217 23.0008 20.5883 23.2674C20.855 23.5341 21.2166 23.6839 21.5938 23.6839C21.9709 23.6839 22.3325 23.5341 22.5992 23.2674C22.8658 23.0008 23.0156 22.6391 23.0156 22.262V11.797C26.9362 9.41424 31.2823 7.81582 35.8125 7.09062V25.8594C35.8125 26.2365 35.9623 26.5981 36.229 26.8648C36.4956 27.1314 36.8573 27.2812 37.2344 27.2812H45.7656C46.1427 27.2812 46.5044 27.1314 46.771 26.8648C47.0377 26.5981 47.1875 26.2365 47.1875 25.8594V7.09062C51.7177 7.81582 56.0638 9.41424 59.9844 11.797V22.2478C59.9844 22.6249 60.1342 22.9866 60.4008 23.2532C60.6675 23.5199 61.0291 23.6697 61.4062 23.6697C61.7834 23.6697 62.145 23.5199 62.4117 23.2532C62.6783 22.9866 62.8281 22.6249 62.8281 22.2478V13.7166C67.2429 17.0276 70.8262 21.3211 73.2941 26.257C75.762 31.1929 77.0469 36.6356 77.0469 42.1541H5.95312C5.95533 36.638 7.24124 31.1981 9.70909 26.2649C12.1769 21.3316 15.759 17.0404 20.1719 13.7308ZM79.8906 50.3156C79.8869 50.7921 79.695 51.2477 79.3567 51.5833C79.0185 51.9189 78.5613 52.1072 78.0848 52.1072H4.91516C4.43869 52.1072 3.98152 51.9189 3.64328 51.5833C3.30503 51.2477 3.11313 50.7921 3.10938 50.3156V46.8036C3.10938 46.3247 3.29963 45.8654 3.63828 45.5267C3.97693 45.1881 4.43623 44.9978 4.91516 44.9978H78.0848C78.5638 44.9978 79.0231 45.1881 79.3617 45.5267C79.7004 45.8654 79.8906 46.3247 79.8906 46.8036V50.3156Z" fill="#6CB5EA"/>
<path d="M74.1036 58.3066C74.1105 58.2166 74.1105 58.1263 74.1036 58.0364C74.0456 57.9316 73.979 57.8317 73.9045 57.7378C73.8799 57.6807 73.8463 57.6279 73.805 57.5814C73.6855 57.463 73.5459 57.3667 73.3927 57.297C73.2031 57.1998 72.9942 57.1463 72.7812 57.1406H10.2188C10.0282 57.141 9.83957 57.1797 9.66422 57.2544C9.51103 57.324 9.37141 57.4203 9.25187 57.5387C9.21057 57.5852 9.17697 57.638 9.15234 57.6952C9.07788 57.789 9.0113 57.8889 8.95328 57.9937C8.94643 58.0837 8.94643 58.174 8.95328 58.2639C8.89109 58.3578 8.83868 58.4579 8.79688 58.5625C9.08919 64.2801 11.1903 69.7571 14.7972 74.2031C17.5902 77.695 21.0883 80.5584 25.0631 82.6064H25.1484C25.307 82.6692 25.4756 82.7029 25.6461 82.7059H57.2828C57.4533 82.7029 57.6219 82.6692 57.7805 82.6064H57.8658H57.9369C61.9117 80.5584 65.4098 77.695 68.2028 74.2031C71.7957 69.7764 73.896 64.3266 74.2031 58.6336C74.1814 58.5214 74.148 58.4118 74.1036 58.3066ZM14.4844 59.9844V68.5156C13.0657 65.8638 12.1543 62.9705 11.797 59.9844H14.4844ZM26.0727 79.8906C25.2032 79.4277 24.3584 78.9198 23.5417 78.3692C23.2573 78.1844 23.0014 77.9711 22.7312 77.772C22.4611 77.573 22.0487 77.2886 21.7217 77.0184C22.0714 76.9869 22.397 76.8271 22.6359 76.5698C22.8748 76.3126 23.01 75.976 23.0156 75.625C23.0156 75.2479 22.8658 74.8862 22.5992 74.6196C22.3325 74.3529 21.9709 74.2031 21.5938 74.2031H18.622L18.2523 73.805C17.9395 73.4495 17.6125 73.1083 17.3281 72.7528V71.3594H21.5938C21.9709 71.3594 22.3325 71.2096 22.5992 70.9429C22.8658 70.6763 23.0156 70.3146 23.0156 69.9375C23.0156 69.5604 22.8658 69.1987 22.5992 68.9321C22.3325 68.6654 21.9709 68.5156 21.5938 68.5156H17.3281V65.6719H21.5938C21.9709 65.6719 22.3325 65.5221 22.5992 65.2554C22.8658 64.9888 23.0156 64.6271 23.0156 64.25C23.0156 63.8729 22.8658 63.5112 22.5992 63.2446C22.3325 62.9779 21.9709 62.8281 21.5938 62.8281H17.3281V59.9844H65.6719V62.8281H28.7031C28.326 62.8281 27.9644 62.9779 27.6977 63.2446C27.4311 63.5112 27.2812 63.8729 27.2812 64.25C27.2812 64.6271 27.4311 64.9888 27.6977 65.2554C27.9644 65.5221 28.326 65.6719 28.7031 65.6719H65.6719V68.5156H28.7031C28.326 68.5156 27.9644 68.6654 27.6977 68.9321C27.4311 69.1987 27.2812 69.5604 27.2812 69.9375C27.2812 70.3146 27.4311 70.6763 27.6977 70.9429C27.9644 71.2096 28.326 71.3594 28.7031 71.3594H65.6719V72.7812C65.3875 73.1367 65.0605 73.478 64.7477 73.8334L64.378 74.2316H28.7031C28.326 74.2316 27.9644 74.3814 27.6977 74.648C27.4311 74.9147 27.2812 75.2763 27.2812 75.6534C27.2812 76.0305 27.4311 76.3922 27.6977 76.6589C27.9644 76.9255 28.326 77.0753 28.7031 77.0753H61.2498L60.2687 77.8005C59.9986 77.9995 59.7427 78.2128 59.4583 78.3977C58.6409 78.9386 57.7962 79.4369 56.9273 79.8906H26.0727ZM68.5156 68.5156V59.9844H71.203C70.8457 62.9705 69.9343 65.8638 68.5156 68.5156Z" fill="#6CB5EA"/>
</svg>
