<svg width="30" height="30" viewBox="0 0 30 30" fill="none" xmlns="http://www.w3.org/2000/svg">
<path d="M25.8975 8.45061L18.9956 1.21123C18.8681 1.07436 18.69 0.995605 18.5081 0.995605H7.58248C5.56686 0.995605 3.90186 2.65311 3.90186 4.66873V25.3294C3.90186 27.345 5.56686 29.0025 7.58248 29.0025H22.4119C24.4275 29.0025 26.0925 27.345 26.0925 25.3294V8.92498C26.0925 8.74873 26.0119 8.57998 25.8956 8.45061H25.8975ZM19.1962 3.38436L23.8162 8.23498H20.8144C19.9219 8.23498 19.1981 7.51873 19.1981 6.62436V3.38436H19.1962ZM24.7425 25.3312C24.7425 26.6044 23.6869 27.6525 22.4156 27.6525H7.58623C6.32248 27.6525 5.25936 26.6044 5.25936 25.3312V4.67061C5.25936 3.40686 6.31311 2.34936 7.58623 2.34936H17.8425V6.62436C17.8425 8.26686 19.17 9.58873 20.8125 9.58873H24.7444L24.7425 25.3312Z" fill="#6CB5EA"/>
<path d="M9.43127 22.9838C9.05814 22.9838 8.75439 23.2894 8.75439 23.6606C8.75439 24.0319 9.06002 24.3375 9.43127 24.3375H20.5744C20.9475 24.3375 21.2513 24.0319 21.2513 23.6606C21.2513 23.2894 20.9456 22.9838 20.5669 22.9838H9.43127Z" fill="#6CB5EA"/>
<path d="M18.1462 9.91874C17.8818 9.65437 17.4562 9.65437 17.1918 9.91874L11.1375 15.9525C11.0643 16.0256 11.0006 16.1212 10.9687 16.23L9.74997 20.0719C9.67684 20.3156 9.73684 20.5725 9.91872 20.7562C10.0462 20.8837 10.2243 20.9531 10.3987 20.9531C10.4662 20.9531 10.5356 20.94 10.6031 20.9194L14.445 19.71C14.5462 19.6762 14.6418 19.6219 14.7225 19.5412L20.7581 13.4869C21.0225 13.2225 21.0225 12.7969 20.7581 12.5325L18.1481 9.92249L18.1462 9.91874ZM11.4337 19.2412L11.9212 17.6981L12.975 18.7537L11.4337 19.2412ZM14.2425 18.105L12.5718 16.4344L17.6662 11.3531L19.3237 13.0106L14.2425 18.105Z" fill="#6CB5EA"/>
</svg>
