<svg width="30" height="30" viewBox="0 0 30 30" fill="none" xmlns="http://www.w3.org/2000/svg">
<path d="M11.25 27.5H18.75C25 27.5 27.5 25 27.5 18.75V11.25C27.5 5 25 2.5 18.75 2.5H11.25C5 2.5 2.5 5 2.5 11.25V18.75C2.5 25 5 27.5 11.25 27.5Z" stroke="#6CB5EA" stroke-width="1.5" stroke-linecap="round" stroke-linejoin="round"/>
<path d="M20.35 17.0125C18.9375 18.425 16.9125 18.8625 15.125 18.3L11.8875 21.525C11.6625 21.7625 11.2 21.9125 10.8625 21.8625L9.3625 21.6625C8.8625 21.6 8.4125 21.125 8.3375 20.6375L8.1375 19.1375C8.0875 18.8125 8.25 18.35 8.475 18.1125L11.7 14.8875C11.15 13.1 11.575 11.075 12.9875 9.66255C15.0125 7.63755 18.3125 7.63755 20.35 9.66255C22.375 11.675 22.375 14.975 20.35 17.0125Z" stroke="#6CB5EA" stroke-width="1.5" stroke-miterlimit="10" stroke-linecap="round" stroke-linejoin="round"/>
<path d="M13.0625 20.3499L12 19.2749" stroke="#6CB5EA" stroke-width="1.5" stroke-miterlimit="10" stroke-linecap="round" stroke-linejoin="round"/>
<path d="M16.7432 13.375H16.7544" stroke="#6CB5EA" stroke-width="2" stroke-linecap="round" stroke-linejoin="round"/>
</svg>
