<svg width="30" height="30" viewBox="0 0 30 30" fill="none" xmlns="http://www.w3.org/2000/svg">
<path d="M13.4395 21.0754V23.6129C13.4395 25.7629 11.4395 27.5004 8.97698 27.5004C6.51448 27.5004 4.50195 25.7629 4.50195 23.6129V21.0754C4.50195 23.2254 6.50198 24.7504 8.97698 24.7504C11.4395 24.7504 13.4395 23.2129 13.4395 21.0754Z" stroke="#6CB5EA" stroke-width="1.5" stroke-linecap="round" stroke-linejoin="round"/>
<path d="M13.4377 17.6375C13.4377 18.2625 13.2627 18.8375 12.9627 19.3375C12.2251 20.55 10.7126 21.3124 8.96261 21.3124C7.21261 21.3124 5.7001 20.5375 4.9626 19.3375C4.6626 18.8375 4.48767 18.2625 4.48767 17.6375C4.48767 16.5625 4.98765 15.6 5.78765 14.9C6.60015 14.1875 7.7126 13.7625 8.9501 13.7625C10.1876 13.7625 11.3001 14.2 12.1126 14.9C12.9377 15.5875 13.4377 16.5625 13.4377 17.6375Z" stroke="#6CB5EA" stroke-width="1.5" stroke-linecap="round" stroke-linejoin="round"/>
<path d="M13.4395 17.6375V21.075C13.4395 23.225 11.4395 24.75 8.97698 24.75C6.51448 24.75 4.50195 23.2125 4.50195 21.075V17.6375C4.50195 15.4875 6.50198 13.75 8.97698 13.75C10.2145 13.75 11.327 14.1875 12.1395 14.8875C12.9395 15.5875 13.4395 16.5625 13.4395 17.6375Z" stroke="#6CB5EA" stroke-width="1.5" stroke-linecap="round" stroke-linejoin="round"/>
<path d="M27.5 13.7123V16.2874C27.5 16.9749 26.95 17.5373 26.25 17.5623H23.7999C22.4499 17.5623 21.2125 16.5748 21.1 15.2248C21.025 14.4373 21.3249 13.6998 21.8499 13.1873C22.3124 12.7123 22.95 12.4374 23.65 12.4374H26.25C26.95 12.4624 27.5 13.0248 27.5 13.7123Z" stroke="#6CB5EA" stroke-width="1.5" stroke-linecap="round" stroke-linejoin="round"/>
<path d="M2.5 13.125V10.625C2.5 7.225 4.55 4.85 7.7375 4.45C8.0625 4.4 8.4 4.375 8.75 4.375H20C20.325 4.375 20.6375 4.38749 20.9375 4.43749C24.1625 4.81249 26.25 7.2 26.25 10.625V12.4375H23.65C22.95 12.4375 22.3125 12.7125 21.85 13.1875C21.325 13.7 21.025 14.4375 21.1 15.225C21.2125 16.575 22.45 17.5625 23.8 17.5625H26.25V19.375C26.25 23.125 23.75 25.625 20 25.625H16.875" stroke="#6CB5EA" stroke-width="1.5" stroke-linecap="round" stroke-linejoin="round"/>
</svg>
