<svg width="20" height="30" viewBox="0 0 20 30" fill="none" xmlns="http://www.w3.org/2000/svg">
<mask id="path-1-outside-1_68_9" maskUnits="userSpaceOnUse" x="-0.140625" y="-0.765625" width="20" height="31" fill="black">
<rect fill="white" x="-0.140625" y="-0.765625" width="20" height="31"/>
<path d="M17.5469 22.8516L13.9844 21.1172L12.8125 20.5547V20.1797C14.125 19.2891 15.5781 17.5547 16.7969 14.2969C17.4297 14.2734 17.9688 13.9922 18.2969 13.5234C18.6953 12.9609 18.7656 12.2109 18.4844 11.6016C18.3906 11.3906 18.25 11.2266 18.1094 11.0859H18.6719V8.83594L17.6641 8.55469V8.41406C17.6641 5.48438 16 2.83594 13.375 1.54688C13.2344 1.03125 12.7891 0.65625 12.2266 0.65625H10.4688V0.234375H9.53125V0.632812H7.77344C7.21094 0.632812 6.76562 1.00781 6.625 1.52344C4 2.8125 2.33594 5.48438 2.33594 8.39062V8.53125L1.32812 8.83594V11.0859H1.89062C1.72656 11.2266 1.60937 11.4141 1.51562 11.6016C1.23437 12.2109 1.30469 12.9609 1.70313 13.5234C2.05469 14.0156 2.59375 14.2734 3.20312 14.2969C4.42188 17.5547 5.89844 19.2656 7.1875 20.1797V20.5547L6.32031 20.9766L2.45312 22.8516C1.49219 23.3203 0.859375 24.3047 0.859375 25.3828V29.5312H19.1406V25.3828C19.1406 24.3047 18.5078 23.3203 17.5469 22.8516ZM11.8516 21.1641C11.8281 21.2812 11.8047 21.375 11.7812 21.4922V21.5156C11.7578 21.5625 11.7578 21.5859 11.7344 21.6328C11.7344 21.6562 11.7109 21.6797 11.7109 21.7031C11.6875 21.7266 11.6875 21.75 11.6641 21.7734C11.6406 21.8203 11.6172 21.8672 11.5938 21.8906C11.5938 21.8906 11.5938 21.8906 11.5938 21.9141C11.3828 22.2188 11.1016 22.4531 10.7734 22.5938C10.7734 22.5938 10.7734 22.5938 10.75 22.5938C10.7031 22.6172 10.6562 22.6406 10.6094 22.6406H10.5859C10.5391 22.6641 10.4922 22.6641 10.4453 22.6641C10.4219 22.6641 10.4219 22.6641 10.3984 22.6641C10.3516 22.6641 10.3047 22.6875 10.2578 22.6875C10.2344 22.6875 10.2344 22.6875 10.2109 22.6875C10.1406 22.6875 10.0938 22.6875 10.0234 22.6875C8.99219 22.6875 8.14844 21.8438 8.14844 20.8125V20.6719C8.92188 21.0234 9.57812 21.0938 10.0234 21.0938C10.4688 21.0938 11.125 21.0234 11.8984 20.6719V20.8594C11.875 20.9062 11.8516 21.0469 11.8516 21.1641ZM17.5469 12.9844C17.4531 13.1016 17.3359 13.2422 17.125 13.3125C17.2422 12.7969 17.3359 12.2344 17.3828 11.7188C17.5 11.7891 17.5938 11.8828 17.6406 12.0234C17.7812 12.3047 17.7578 12.7031 17.5469 12.9844ZM2.26562 9.53906L3.27344 9.25781V8.41406C3.27344 6.02344 4.5625 3.82031 6.57813 2.625V5.4375H7.51563V1.82812C7.51563 1.6875 7.63281 1.57031 7.77344 1.57031H9.53125V6.96094H10.4688V1.57031H12.2266C12.3672 1.57031 12.4844 1.6875 12.4844 1.82812V5.41406H13.4219V2.60156C15.4609 3.79688 16.7266 6 16.7266 8.39062V9.23438L17.7344 9.51562V10.125H2.26562V9.53906ZM2.45312 12.9844C2.24219 12.7031 2.21875 12.3047 2.35937 12.0234C2.42969 11.9062 2.5 11.7891 2.61719 11.7188C2.66406 12.3047 2.78125 12.8203 2.89844 13.3125C2.6875 13.2422 2.54687 13.1016 2.45312 12.9844ZM3.97656 13.6875C3.76562 12.9141 3.55469 12.0938 3.50781 11.0859H16.4922C16.4687 11.8359 16.3047 12.9609 16.0469 13.6641C13.9375 19.5469 11.125 20.1797 10 20.1797C8.89844 20.2031 6.08594 19.5703 3.97656 13.6875ZM18.2031 28.5938H16.0938V27.8906H15.1562V28.5938H4.84375V27.8906H3.90625V28.5938H1.79688V25.3828C1.79688 24.6562 2.21875 24 2.85156 23.6953L7.28125 21.5625C7.28125 21.5859 7.30469 21.6094 7.30469 21.6328C7.30469 21.6562 7.32812 21.7031 7.32812 21.7266C7.35156 21.7734 7.375 21.8438 7.39844 21.8906C7.39844 21.9141 7.42188 21.9375 7.42188 21.9609C7.44531 22.0312 7.49219 22.1016 7.51563 22.1484C7.51563 22.1484 7.51562 22.1719 7.53906 22.1719C7.58594 22.2422 7.63281 22.3125 7.67969 22.3828C7.70312 22.4062 7.70312 22.4297 7.72656 22.4531C7.75 22.5 7.79688 22.5469 7.84375 22.5938C7.86719 22.6172 7.89062 22.6406 7.91406 22.6641C7.9375 22.7109 7.98437 22.7344 8.03125 22.7812C8.05469 22.8047 8.07813 22.8281 8.10156 22.8516C8.14844 22.8984 8.17188 22.9219 8.21875 22.9688C8.24219 22.9922 8.26562 23.0156 8.28906 23.0391C8.33594 23.0859 8.38281 23.1094 8.42969 23.1562C8.45312 23.1797 8.47656 23.1797 8.47656 23.2031C8.54688 23.25 8.61719 23.2969 8.6875 23.3438C8.71094 23.3438 8.71094 23.3672 8.73437 23.3672C8.80469 23.3906 8.85156 23.4375 8.92188 23.4609C8.94531 23.4844 8.96875 23.4844 9.01562 23.4844C9.0625 23.5078 9.10938 23.5312 9.17969 23.5312C9.20312 23.5312 9.25 23.5547 9.27344 23.5547C9.32031 23.5781 9.39062 23.5781 9.4375 23.6016C9.46094 23.6016 9.50781 23.625 9.53125 23.625C9.57812 23.625 9.64844 23.6484 9.71875 23.6484C9.74219 23.6484 9.76562 23.6484 9.8125 23.6484C9.90625 23.6484 10 23.6719 10.0703 23.6719C10.1641 23.6719 10.2344 23.6719 10.3281 23.6719C10.375 23.6719 10.4219 23.6719 10.4453 23.6484C10.4922 23.6484 10.5156 23.6484 10.5625 23.625C10.6094 23.625 10.6797 23.6016 10.7266 23.5781C10.75 23.5781 10.7734 23.5781 10.7969 23.5547C10.8672 23.5312 10.9141 23.5078 10.9844 23.5078C11.0078 23.5078 11.0078 23.5078 11.0312 23.4844C11.1016 23.4609 11.1719 23.4375 11.2187 23.4141H11.2422C11.3125 23.3906 11.3828 23.3438 11.4297 23.3203C11.5 23.2734 11.5469 23.25 11.6172 23.2031C11.6875 23.1562 11.7344 23.1328 11.7812 23.0859C11.7812 23.0859 11.8047 23.0859 11.8047 23.0625C11.8516 23.0156 11.8984 22.9688 11.9453 22.9453L11.9688 22.9219C12.0156 22.875 12.0391 22.8516 12.0859 22.8047C12.1094 22.7812 12.1328 22.7578 12.1328 22.7344C12.1562 22.7109 12.1797 22.6641 12.2266 22.6406C12.25 22.5938 12.2969 22.5703 12.3203 22.5234C12.3438 22.5 12.3438 22.4766 12.3672 22.4766C12.5547 22.2188 12.6953 21.9141 12.7656 21.5859L17.1719 23.7188C17.8281 24.0234 18.2266 24.7031 18.2266 25.4062V28.5938H18.2031Z"/>
</mask>
<path d="M17.5469 22.8516L13.9844 21.1172L12.8125 20.5547V20.1797C14.125 19.2891 15.5781 17.5547 16.7969 14.2969C17.4297 14.2734 17.9688 13.9922 18.2969 13.5234C18.6953 12.9609 18.7656 12.2109 18.4844 11.6016C18.3906 11.3906 18.25 11.2266 18.1094 11.0859H18.6719V8.83594L17.6641 8.55469V8.41406C17.6641 5.48438 16 2.83594 13.375 1.54688C13.2344 1.03125 12.7891 0.65625 12.2266 0.65625H10.4688V0.234375H9.53125V0.632812H7.77344C7.21094 0.632812 6.76562 1.00781 6.625 1.52344C4 2.8125 2.33594 5.48438 2.33594 8.39062V8.53125L1.32812 8.83594V11.0859H1.89062C1.72656 11.2266 1.60937 11.4141 1.51562 11.6016C1.23437 12.2109 1.30469 12.9609 1.70313 13.5234C2.05469 14.0156 2.59375 14.2734 3.20312 14.2969C4.42188 17.5547 5.89844 19.2656 7.1875 20.1797V20.5547L6.32031 20.9766L2.45312 22.8516C1.49219 23.3203 0.859375 24.3047 0.859375 25.3828V29.5312H19.1406V25.3828C19.1406 24.3047 18.5078 23.3203 17.5469 22.8516ZM11.8516 21.1641C11.8281 21.2812 11.8047 21.375 11.7812 21.4922V21.5156C11.7578 21.5625 11.7578 21.5859 11.7344 21.6328C11.7344 21.6562 11.7109 21.6797 11.7109 21.7031C11.6875 21.7266 11.6875 21.75 11.6641 21.7734C11.6406 21.8203 11.6172 21.8672 11.5938 21.8906C11.5938 21.8906 11.5938 21.8906 11.5938 21.9141C11.3828 22.2188 11.1016 22.4531 10.7734 22.5938C10.7734 22.5938 10.7734 22.5938 10.75 22.5938C10.7031 22.6172 10.6562 22.6406 10.6094 22.6406H10.5859C10.5391 22.6641 10.4922 22.6641 10.4453 22.6641C10.4219 22.6641 10.4219 22.6641 10.3984 22.6641C10.3516 22.6641 10.3047 22.6875 10.2578 22.6875C10.2344 22.6875 10.2344 22.6875 10.2109 22.6875C10.1406 22.6875 10.0938 22.6875 10.0234 22.6875C8.99219 22.6875 8.14844 21.8438 8.14844 20.8125V20.6719C8.92188 21.0234 9.57812 21.0938 10.0234 21.0938C10.4688 21.0938 11.125 21.0234 11.8984 20.6719V20.8594C11.875 20.9062 11.8516 21.0469 11.8516 21.1641ZM17.5469 12.9844C17.4531 13.1016 17.3359 13.2422 17.125 13.3125C17.2422 12.7969 17.3359 12.2344 17.3828 11.7188C17.5 11.7891 17.5938 11.8828 17.6406 12.0234C17.7812 12.3047 17.7578 12.7031 17.5469 12.9844ZM2.26562 9.53906L3.27344 9.25781V8.41406C3.27344 6.02344 4.5625 3.82031 6.57813 2.625V5.4375H7.51563V1.82812C7.51563 1.6875 7.63281 1.57031 7.77344 1.57031H9.53125V6.96094H10.4688V1.57031H12.2266C12.3672 1.57031 12.4844 1.6875 12.4844 1.82812V5.41406H13.4219V2.60156C15.4609 3.79688 16.7266 6 16.7266 8.39062V9.23438L17.7344 9.51562V10.125H2.26562V9.53906ZM2.45312 12.9844C2.24219 12.7031 2.21875 12.3047 2.35937 12.0234C2.42969 11.9062 2.5 11.7891 2.61719 11.7188C2.66406 12.3047 2.78125 12.8203 2.89844 13.3125C2.6875 13.2422 2.54687 13.1016 2.45312 12.9844ZM3.97656 13.6875C3.76562 12.9141 3.55469 12.0938 3.50781 11.0859H16.4922C16.4687 11.8359 16.3047 12.9609 16.0469 13.6641C13.9375 19.5469 11.125 20.1797 10 20.1797C8.89844 20.2031 6.08594 19.5703 3.97656 13.6875ZM18.2031 28.5938H16.0938V27.8906H15.1562V28.5938H4.84375V27.8906H3.90625V28.5938H1.79688V25.3828C1.79688 24.6562 2.21875 24 2.85156 23.6953L7.28125 21.5625C7.28125 21.5859 7.30469 21.6094 7.30469 21.6328C7.30469 21.6562 7.32812 21.7031 7.32812 21.7266C7.35156 21.7734 7.375 21.8438 7.39844 21.8906C7.39844 21.9141 7.42188 21.9375 7.42188 21.9609C7.44531 22.0312 7.49219 22.1016 7.51563 22.1484C7.51563 22.1484 7.51562 22.1719 7.53906 22.1719C7.58594 22.2422 7.63281 22.3125 7.67969 22.3828C7.70312 22.4062 7.70312 22.4297 7.72656 22.4531C7.75 22.5 7.79688 22.5469 7.84375 22.5938C7.86719 22.6172 7.89062 22.6406 7.91406 22.6641C7.9375 22.7109 7.98437 22.7344 8.03125 22.7812C8.05469 22.8047 8.07813 22.8281 8.10156 22.8516C8.14844 22.8984 8.17188 22.9219 8.21875 22.9688C8.24219 22.9922 8.26562 23.0156 8.28906 23.0391C8.33594 23.0859 8.38281 23.1094 8.42969 23.1562C8.45312 23.1797 8.47656 23.1797 8.47656 23.2031C8.54688 23.25 8.61719 23.2969 8.6875 23.3438C8.71094 23.3438 8.71094 23.3672 8.73437 23.3672C8.80469 23.3906 8.85156 23.4375 8.92188 23.4609C8.94531 23.4844 8.96875 23.4844 9.01562 23.4844C9.0625 23.5078 9.10938 23.5312 9.17969 23.5312C9.20312 23.5312 9.25 23.5547 9.27344 23.5547C9.32031 23.5781 9.39062 23.5781 9.4375 23.6016C9.46094 23.6016 9.50781 23.625 9.53125 23.625C9.57812 23.625 9.64844 23.6484 9.71875 23.6484C9.74219 23.6484 9.76562 23.6484 9.8125 23.6484C9.90625 23.6484 10 23.6719 10.0703 23.6719C10.1641 23.6719 10.2344 23.6719 10.3281 23.6719C10.375 23.6719 10.4219 23.6719 10.4453 23.6484C10.4922 23.6484 10.5156 23.6484 10.5625 23.625C10.6094 23.625 10.6797 23.6016 10.7266 23.5781C10.75 23.5781 10.7734 23.5781 10.7969 23.5547C10.8672 23.5312 10.9141 23.5078 10.9844 23.5078C11.0078 23.5078 11.0078 23.5078 11.0312 23.4844C11.1016 23.4609 11.1719 23.4375 11.2187 23.4141H11.2422C11.3125 23.3906 11.3828 23.3438 11.4297 23.3203C11.5 23.2734 11.5469 23.25 11.6172 23.2031C11.6875 23.1562 11.7344 23.1328 11.7812 23.0859C11.7812 23.0859 11.8047 23.0859 11.8047 23.0625C11.8516 23.0156 11.8984 22.9688 11.9453 22.9453L11.9688 22.9219C12.0156 22.875 12.0391 22.8516 12.0859 22.8047C12.1094 22.7812 12.1328 22.7578 12.1328 22.7344C12.1562 22.7109 12.1797 22.6641 12.2266 22.6406C12.25 22.5938 12.2969 22.5703 12.3203 22.5234C12.3438 22.5 12.3438 22.4766 12.3672 22.4766C12.5547 22.2188 12.6953 21.9141 12.7656 21.5859L17.1719 23.7188C17.8281 24.0234 18.2266 24.7031 18.2266 25.4062V28.5938H18.2031Z" fill="#6CB5EA"/>
<path d="M17.5469 22.8516L13.9844 21.1172L12.8125 20.5547V20.1797C14.125 19.2891 15.5781 17.5547 16.7969 14.2969C17.4297 14.2734 17.9688 13.9922 18.2969 13.5234C18.6953 12.9609 18.7656 12.2109 18.4844 11.6016C18.3906 11.3906 18.25 11.2266 18.1094 11.0859H18.6719V8.83594L17.6641 8.55469V8.41406C17.6641 5.48438 16 2.83594 13.375 1.54688C13.2344 1.03125 12.7891 0.65625 12.2266 0.65625H10.4688V0.234375H9.53125V0.632812H7.77344C7.21094 0.632812 6.76562 1.00781 6.625 1.52344C4 2.8125 2.33594 5.48438 2.33594 8.39062V8.53125L1.32812 8.83594V11.0859H1.89062C1.72656 11.2266 1.60937 11.4141 1.51562 11.6016C1.23437 12.2109 1.30469 12.9609 1.70313 13.5234C2.05469 14.0156 2.59375 14.2734 3.20312 14.2969C4.42188 17.5547 5.89844 19.2656 7.1875 20.1797V20.5547L6.32031 20.9766L2.45312 22.8516C1.49219 23.3203 0.859375 24.3047 0.859375 25.3828V29.5312H19.1406V25.3828C19.1406 24.3047 18.5078 23.3203 17.5469 22.8516ZM11.8516 21.1641C11.8281 21.2812 11.8047 21.375 11.7812 21.4922V21.5156C11.7578 21.5625 11.7578 21.5859 11.7344 21.6328C11.7344 21.6562 11.7109 21.6797 11.7109 21.7031C11.6875 21.7266 11.6875 21.75 11.6641 21.7734C11.6406 21.8203 11.6172 21.8672 11.5938 21.8906C11.5938 21.8906 11.5938 21.8906 11.5938 21.9141C11.3828 22.2188 11.1016 22.4531 10.7734 22.5938C10.7734 22.5938 10.7734 22.5938 10.75 22.5938C10.7031 22.6172 10.6562 22.6406 10.6094 22.6406H10.5859C10.5391 22.6641 10.4922 22.6641 10.4453 22.6641C10.4219 22.6641 10.4219 22.6641 10.3984 22.6641C10.3516 22.6641 10.3047 22.6875 10.2578 22.6875C10.2344 22.6875 10.2344 22.6875 10.2109 22.6875C10.1406 22.6875 10.0938 22.6875 10.0234 22.6875C8.99219 22.6875 8.14844 21.8438 8.14844 20.8125V20.6719C8.92188 21.0234 9.57812 21.0938 10.0234 21.0938C10.4688 21.0938 11.125 21.0234 11.8984 20.6719V20.8594C11.875 20.9062 11.8516 21.0469 11.8516 21.1641ZM17.5469 12.9844C17.4531 13.1016 17.3359 13.2422 17.125 13.3125C17.2422 12.7969 17.3359 12.2344 17.3828 11.7188C17.5 11.7891 17.5938 11.8828 17.6406 12.0234C17.7812 12.3047 17.7578 12.7031 17.5469 12.9844ZM2.26562 9.53906L3.27344 9.25781V8.41406C3.27344 6.02344 4.5625 3.82031 6.57813 2.625V5.4375H7.51563V1.82812C7.51563 1.6875 7.63281 1.57031 7.77344 1.57031H9.53125V6.96094H10.4688V1.57031H12.2266C12.3672 1.57031 12.4844 1.6875 12.4844 1.82812V5.41406H13.4219V2.60156C15.4609 3.79688 16.7266 6 16.7266 8.39062V9.23438L17.7344 9.51562V10.125H2.26562V9.53906ZM2.45312 12.9844C2.24219 12.7031 2.21875 12.3047 2.35937 12.0234C2.42969 11.9062 2.5 11.7891 2.61719 11.7188C2.66406 12.3047 2.78125 12.8203 2.89844 13.3125C2.6875 13.2422 2.54687 13.1016 2.45312 12.9844ZM3.97656 13.6875C3.76562 12.9141 3.55469 12.0938 3.50781 11.0859H16.4922C16.4687 11.8359 16.3047 12.9609 16.0469 13.6641C13.9375 19.5469 11.125 20.1797 10 20.1797C8.89844 20.2031 6.08594 19.5703 3.97656 13.6875ZM18.2031 28.5938H16.0938V27.8906H15.1562V28.5938H4.84375V27.8906H3.90625V28.5938H1.79688V25.3828C1.79688 24.6562 2.21875 24 2.85156 23.6953L7.28125 21.5625C7.28125 21.5859 7.30469 21.6094 7.30469 21.6328C7.30469 21.6562 7.32812 21.7031 7.32812 21.7266C7.35156 21.7734 7.375 21.8438 7.39844 21.8906C7.39844 21.9141 7.42188 21.9375 7.42188 21.9609C7.44531 22.0312 7.49219 22.1016 7.51563 22.1484C7.51563 22.1484 7.51562 22.1719 7.53906 22.1719C7.58594 22.2422 7.63281 22.3125 7.67969 22.3828C7.70312 22.4062 7.70312 22.4297 7.72656 22.4531C7.75 22.5 7.79688 22.5469 7.84375 22.5938C7.86719 22.6172 7.89062 22.6406 7.91406 22.6641C7.9375 22.7109 7.98437 22.7344 8.03125 22.7812C8.05469 22.8047 8.07813 22.8281 8.10156 22.8516C8.14844 22.8984 8.17188 22.9219 8.21875 22.9688C8.24219 22.9922 8.26562 23.0156 8.28906 23.0391C8.33594 23.0859 8.38281 23.1094 8.42969 23.1562C8.45312 23.1797 8.47656 23.1797 8.47656 23.2031C8.54688 23.25 8.61719 23.2969 8.6875 23.3438C8.71094 23.3438 8.71094 23.3672 8.73437 23.3672C8.80469 23.3906 8.85156 23.4375 8.92188 23.4609C8.94531 23.4844 8.96875 23.4844 9.01562 23.4844C9.0625 23.5078 9.10938 23.5312 9.17969 23.5312C9.20312 23.5312 9.25 23.5547 9.27344 23.5547C9.32031 23.5781 9.39062 23.5781 9.4375 23.6016C9.46094 23.6016 9.50781 23.625 9.53125 23.625C9.57812 23.625 9.64844 23.6484 9.71875 23.6484C9.74219 23.6484 9.76562 23.6484 9.8125 23.6484C9.90625 23.6484 10 23.6719 10.0703 23.6719C10.1641 23.6719 10.2344 23.6719 10.3281 23.6719C10.375 23.6719 10.4219 23.6719 10.4453 23.6484C10.4922 23.6484 10.5156 23.6484 10.5625 23.625C10.6094 23.625 10.6797 23.6016 10.7266 23.5781C10.75 23.5781 10.7734 23.5781 10.7969 23.5547C10.8672 23.5312 10.9141 23.5078 10.9844 23.5078C11.0078 23.5078 11.0078 23.5078 11.0312 23.4844C11.1016 23.4609 11.1719 23.4375 11.2187 23.4141H11.2422C11.3125 23.3906 11.3828 23.3438 11.4297 23.3203C11.5 23.2734 11.5469 23.25 11.6172 23.2031C11.6875 23.1562 11.7344 23.1328 11.7812 23.0859C11.7812 23.0859 11.8047 23.0859 11.8047 23.0625C11.8516 23.0156 11.8984 22.9688 11.9453 22.9453L11.9688 22.9219C12.0156 22.875 12.0391 22.8516 12.0859 22.8047C12.1094 22.7812 12.1328 22.7578 12.1328 22.7344C12.1562 22.7109 12.1797 22.6641 12.2266 22.6406C12.25 22.5938 12.2969 22.5703 12.3203 22.5234C12.3438 22.5 12.3438 22.4766 12.3672 22.4766C12.5547 22.2188 12.6953 21.9141 12.7656 21.5859L17.1719 23.7188C17.8281 24.0234 18.2266 24.7031 18.2266 25.4062V28.5938H18.2031Z" stroke="#6CB5EA" stroke-width="0.2" mask="url(#path-1-outside-1_68_9)"/>
<path d="M15.0391 8.4375H4.96094V9.375H15.0391V8.4375Z" fill="#6CB5EA"/>
</svg>
